<?xml version="1.0" encoding="utf-8"?>
<!-- Generator: Adobe Illustrator 24.1.1, SVG Export Plug-In . SVG Version: 6.00 Build 0)  -->
<svg version="1.1" id="Capa_1" xmlns="http://www.w3.org/2000/svg" xmlns:xlink="http://www.w3.org/1999/xlink" x="0px" y="0px"
	 viewBox="0 0 213.5 50.5" style="enable-background:new 0 0 213.5 50.5;" xml:space="preserve">
<style type="text/css">
	.st0{fill:#FFFFFF;}
</style>
<g>
	<path id="path2" class="st0" d="M98.1,26.3c0,5.7-4.4,9.8-9.9,9.8c-5.4,0-9.9-4.2-9.9-9.8c0-5.7,4.4-9.8,9.9-9.8
		C93.7,16.4,98.1,20.6,98.1,26.3z M93.8,26.3c0-3.5-2.6-6-5.6-6c-3,0-5.6,2.4-5.6,6c0,3.5,2.6,6,5.6,6
		C91.2,32.3,93.8,29.8,93.8,26.3z"/>
	<path id="path4" class="st0" d="M119.4,26.3c0,5.7-4.4,9.8-9.9,9.8c-5.4,0-9.9-4.2-9.9-9.8c0-5.7,4.4-9.8,9.9-9.8
		C115,16.4,119.4,20.6,119.4,26.3z M115.1,26.3c0-3.5-2.6-6-5.6-6c-3,0-5.6,2.4-5.6,6c0,3.5,2.6,6,5.6,6
		C112.5,32.3,115.1,29.8,115.1,26.3z"/>
	<path id="path6" class="st0" d="M139.9,17v17.7c0,7.3-4.3,10.2-9.4,10.2c-4.8,0-7.6-3.2-8.7-5.8l3.8-1.6c0.7,1.6,2.3,3.5,5,3.5
		c3.2,0,5.3-2,5.3-5.8v-1.4h-0.2c-1,1.2-2.8,2.2-5.2,2.2c-4.9,0-9.4-4.3-9.4-9.8c0-5.6,4.5-9.9,9.4-9.9c2.3,0,4.2,1,5.2,2.2h0.2V17
		L139.9,17L139.9,17z M136.1,26.3c0-3.5-2.3-6-5.3-6c-3,0-5.5,2.5-5.5,6c0,3.4,2.5,5.9,5.5,5.9C133.8,32.3,136.1,29.8,136.1,26.3z"
		/>
	<path id="path8" class="st0" d="M146.6,6.7v28.9h-4.2V6.7H146.6z"/>
	<path id="path10" class="st0" d="M163.1,29.5l3.4,2.2c-1.1,1.6-3.7,4.4-8.2,4.4c-5.6,0-9.8-4.3-9.8-9.8c0-5.9,4.2-9.8,9.3-9.8
		c5.1,0,7.6,4.1,8.4,6.3l0.4,1.1l-13.2,5.5c1,2,2.6,3,4.8,3C160.4,32.3,162,31.2,163.1,29.5L163.1,29.5z M152.7,26l8.8-3.7
		c-0.5-1.2-1.9-2.1-3.7-2.1C155.7,20.2,152.6,22.2,152.7,26z"/>
	<path id="path12" class="st0" d="M62.4,23.7v-4.2h14.1c0.1,0.7,0.2,1.6,0.2,2.5c0,3.1-0.9,7-3.6,9.8c-2.7,2.8-6.1,4.3-10.7,4.3
		c-8.4,0-15.5-6.9-15.5-15.3S54,5.5,62.4,5.5c4.7,0,8,1.8,10.5,4.2l-2.9,2.9c-1.8-1.7-4.2-3-7.5-3c-6.2,0-11,5-11,11.1
		S56.2,32,62.4,32c4,0,6.3-1.6,7.7-3.1c1.2-1.2,2-2.9,2.3-5.2L62.4,23.7z"/>
</g>
</svg>
