<?xml version="1.0" encoding="utf-8"?>
<!-- Generator: Adobe Illustrator 24.1.1, SVG Export Plug-In . SVG Version: 6.00 Build 0)  -->
<svg version="1.1" id="Capa_1" xmlns="http://www.w3.org/2000/svg" xmlns:xlink="http://www.w3.org/1999/xlink" x="0px" y="0px"
	 viewBox="0 0 213.5 50.5" style="enable-background:new 0 0 213.5 50.5;" xml:space="preserve">
<style type="text/css">
	.st0{fill:#FFFFFF;}
</style>
<g>
	<path class="st0" d="M56.4,5.2c-16,0-28.9,8.5-28.9,18.9v1.1c0,11.1,11.3,20,28.9,20c17.7,0,28.9-9,28.9-20v-1.1
		C85.3,13.7,72.3,5.2,56.4,5.2z M84,22.1c-4.2,0.9-8.2,2.3-12.2,4c-2.7-2.4-9.1-7.9-10.8-9.2c-0.7-0.6-1.4-1-2.2-1.3
		c-0.4-0.1-0.7-0.2-1.1-0.2c-0.5,0-0.9,0.1-1.4,0.2c-1.2,0.5-2.3,1.2-3.3,2.1l-0.1,0c-1,0.8-2,1.6-2.8,1.8c-0.3,0.1-0.7,0.1-1,0.1
		c-0.7,0.1-1.4-0.2-2-0.7c0-0.1,0-0.2,0.1-0.3l0,0l2.4-2.6c1.9-1.9,3.7-3.7,7.8-3.8h0.2c1.9,0.1,3.7,0.5,5.4,1.3
		c2.3,1.2,4.8,1.8,7.4,1.8c2.8,0,5.6-0.7,8.1-1.9C81.5,15.9,83.4,18.8,84,22.1L84,22.1z M56.4,6.4c8.5,0,16.1,2.4,21.2,6.3
		c-2.2,1-4.6,1.6-7.1,1.6c-2.4,0-4.8-0.6-6.9-1.7c-1.9-0.8-3.8-1.3-5.9-1.4h-0.2c-2.4,0-4.8,0.8-6.7,2.4c-1.1,0.1-2.3,0.3-3.4,0.6
		c-0.8,0.3-1.6,0.4-2.4,0.5c-0.3,0-0.8,0-0.9,0c-2.9-0.5-5.7-1.3-8.5-2.3C40.8,8.6,48.2,6.4,56.4,6.4L56.4,6.4z M34.7,13
		c3.5,1.4,7.8,2.6,9.2,2.6c0.4,0,0.8,0.1,1.2,0.1c0.9,0,1.8-0.2,2.6-0.5c0.5-0.1,1.1-0.3,1.7-0.4c-0.2,0.2-0.3,0.3-0.5,0.5l-2.5,2.6
		c-0.4,0.3-0.5,0.9-0.3,1.3c0.1,0.3,0.4,0.5,0.7,0.7c0.8,0.4,1.7,0.7,2.6,0.7c0.3,0,0.7,0,1-0.1c1-0.2,2.1-1.1,3.3-2
		c0.9-0.8,2-1.5,3.2-1.9c0.3-0.1,0.6-0.1,0.9-0.1c0.1,0,0.2,0,0.2,0c0.9,0.2,1.7,0.5,2.4,1.2c2,1.5,10.9,9.3,11,9.4
		c0.4,0.3,0.6,0.8,0.5,1.3c0,0.5-0.3,0.9-0.7,1.1c-0.3,0.2-0.8,0.4-1.2,0.4c-0.4,0-0.7-0.1-1-0.3c0,0-3.1-2.8-4.2-3.8
		c-0.1-0.1-0.3-0.2-0.5-0.3c-0.1,0-0.2,0-0.2,0.1c-0.2,0.2,0,0.5,0.3,0.7l3.6,3.6c0.3,0.3,0.4,0.6,0.5,1c0,0.6-0.3,1.2-0.8,1.5
		c-0.4,0.3-0.8,0.4-1.3,0.4c-0.4,0-0.7-0.1-1-0.3L64.7,32c-0.9-0.9-1.9-1.9-2.6-2.5c-0.1-0.1-0.3-0.2-0.5-0.3c-0.1,0-0.2,0-0.2,0.1
		c-0.1,0.1-0.1,0.2,0.1,0.5c0.1,0.1,0.1,0.1,0.2,0.2l2.6,2.9c0.3,0.4,0.3,0.9,0.1,1.3l-0.1,0.1c-0.1,0.1-0.2,0.2-0.2,0.2
		c-0.4,0.3-0.8,0.4-1.3,0.4c-0.1,0-0.2,0-0.4,0c-0.2,0-0.4-0.1-0.5-0.2l0,0c-0.1-0.1-1.5-1.5-2.5-2.4c-0.1-0.1-0.3-0.2-0.5-0.3
		c-0.1,0-0.2,0-0.2,0.1c-0.2,0.2,0.1,0.6,0.2,0.7l2.2,2.5c0,0.1,0,0.1-0.1,0.1c-0.1,0.1-0.3,0.4-1.2,0.5c-0.1,0-0.2,0-0.3,0
		c-0.8-0.1-1.5-0.3-2.2-0.7c0.8-1.7,0.1-3.6-1.6-4.4c-0.4-0.2-0.9-0.3-1.4-0.3h-0.1c0.2-1.3-0.5-2.5-1.7-3.1
		c-0.4-0.2-0.9-0.3-1.4-0.3c-0.3,0-0.7,0.1-1,0.2c-0.3-0.7-0.9-1.1-1.6-1.4c-0.4-0.1-0.8-0.2-1.2-0.2c-0.7,0-1.3,0.2-1.9,0.6
		c-0.5-0.7-1.3-1-2.2-1.1c-0.7,0-1.5,0.3-2,0.8c-0.7-0.5-3.4-2.3-10.8-3.9c-0.3-0.1-1.1-0.3-1.6-0.5C29.5,18.5,31.6,15.5,34.7,13
		L34.7,13z M48.3,32.1L48.3,32.1L48.1,32c-0.1,0-0.2,0-0.2,0.1c-0.3,0.2-0.7,0.4-1.1,0.4c-0.2,0-0.4,0-0.6-0.1
		c-1.1-0.4-1.8-1.6-1.5-2.8c0-0.1,0-0.2-0.1-0.2l-0.1-0.1l-0.1,0.1c-0.7,0.7-1.8,0.7-2.5,0c-0.7-0.7-0.7-1.8,0-2.5
		c0.7-0.7,1.8-0.7,2.5,0c0.3,0.3,0.4,0.6,0.5,1l0.1,0.5l0.3-0.4c0.5-0.7,1.2-1.1,2.1-1.1c0.3,0,0.5,0,0.8,0.1
		c0.7,0.2,1.2,0.9,1.3,1.7c0,0.2,0.2,0.2,0.2,0.2c0.1,0,0.2,0,0.2-0.1c0.3-0.4,0.8-0.6,1.3-0.5c0.3,0,0.7,0.1,1,0.2
		c1.7,0.7,0.9,2.8,0.9,2.8c-0.1,0.3-0.2,0.5,0,0.6H53h0c0.1,0,0.2,0,0.3-0.1c0.3-0.1,0.6-0.2,0.9-0.2c1.2,0,2.3,1,2.3,2.3
		c0,1.3-1,2.3-2.2,2.3c-1.3,0-2.3-1-2.3-2.2c0-0.1,0-0.4-0.2-0.4c-0.1,0-0.2,0.1-0.3,0.1c-0.3,0.3-0.7,0.5-1.1,0.5
		c-0.3,0-0.5-0.1-0.7-0.2c-1.3-0.5-1.3-1.4-1.3-1.8C48.4,32.2,48.3,32.2,48.3,32.1L48.3,32.1z M56.4,41.9C41,41.9,28.5,34,28.5,24.1
		c0-0.4,0-0.8,0.1-1.2l1.6,0.4c7.5,1.7,9.9,3.4,10.4,3.7c-0.6,1.4,0.1,3.1,1.5,3.7c0.3,0.1,0.7,0.2,1.1,0.2c0.2,0,0.3,0,0.5,0
		c0.2,1.1,1,2.1,2.1,2.5c0.3,0.1,0.7,0.2,1,0.2c0.2,0,0.4,0,0.7-0.1c0.5,1.1,1.6,1.8,2.8,1.9c0.3,0,0.6-0.1,0.9-0.2
		c0.7,1.7,2.6,2.5,4.3,1.8c0.4-0.2,0.8-0.4,1.1-0.7c0.9,0.5,1.8,0.8,2.8,0.8c0.1,0,0.3,0,0.4,0c0.7,0,1.4-0.4,1.9-0.9
		c0-0.1,0.1-0.1,0.1-0.2c0.3,0.1,0.6,0.1,0.9,0.1c0.7,0,1.3-0.3,1.8-0.7c0.5-0.4,0.9-0.9,1.1-1.6l0,0c0.2,0,0.4,0.1,0.6,0.1
		c0.7,0,1.3-0.2,1.9-0.6c0.9-0.5,1.4-1.4,1.3-2.4c0.2,0,0.4,0.1,0.6,0.1c0.6,0,1.2-0.2,1.7-0.5c0.7-0.4,1.2-1.2,1.2-2
		c0-0.6-0.1-1.1-0.4-1.6c3.7-1.5,7.6-2.7,11.6-3.6c0,0.3,0,0.6,0,0.9C84.2,34,71.7,42,56.4,41.9L56.4,41.9z"/>
	<path class="st0" d="M184.5,11.1c-1.1-1.3-2.6-2-4.8-2s-3.7,0.7-4.8,2c-2.1,2.8-2.1,6.6,0,9.4c1.1,1.3,2.6,1.9,4.8,1.9
		c2.1,0,3.7-0.7,4.8-1.9C186.6,17.6,186.6,13.8,184.5,11.1z M181.9,18.6c-1,1.2-2.8,1.4-4.1,0.3c-0.1-0.1-0.2-0.2-0.3-0.3
		c-1-1.8-1-4,0-5.8c1-1.2,2.9-1.4,4.1-0.3c0.1,0.1,0.2,0.2,0.3,0.3c0.6,0.9,0.8,1.9,0.8,2.9C182.7,16.8,182.5,17.8,181.9,18.6z"/>
	<path class="st0" d="M157.6,10c-1.1-0.6-2.4-0.8-3.7-0.8c-2.1,0-3.6,0.6-4.5,1.6c-0.6,0.8-0.9,1.7-0.9,2.7h3.2
		c0.1-0.4,0.2-0.8,0.5-1.2c0.4-0.4,1.1-0.6,1.7-0.6c0.5,0,1.1,0.1,1.6,0.3c0.4,0.2,0.6,0.6,0.5,1.1c0,0.4-0.3,0.8-0.7,0.9
		c-0.4,0.2-0.9,0.3-1.3,0.3l-1.1,0.1c-1,0.1-2,0.4-2.9,0.8c-1.2,0.7-1.9,2-1.8,3.3c-0.1,1,0.3,2,1.1,2.7c0.8,0.6,1.8,1,2.8,1
		c7.1,0.3,7-3.8,7.1-4.6V13C159.2,11.5,158.7,10.5,157.6,10z M156,17.1c0.1,0.9-0.3,1.7-0.9,2.3c-0.6,0.4-1.3,0.6-2,0.6
		c-0.4,0-0.8-0.1-1.2-0.4c-0.3-0.3-0.5-0.8-0.5-1.2c0-0.6,0.3-1.1,0.8-1.4c0.5-0.2,1-0.4,1.5-0.4l0.7-0.1c0.3-0.1,0.6-0.1,0.9-0.2
		c0.2-0.1,0.5-0.2,0.7-0.3L156,17.1z"/>
	<path class="st0" d="M141.4,11.9c0.7-0.1,1.3,0.2,1.8,0.7c0.3,0.4,0.4,0.8,0.5,1.3h3.5c-0.2-1.8-0.8-3-1.9-3.7
		c-1.2-0.7-2.6-1.1-4-1.1c-1.7-0.1-3.4,0.6-4.6,1.8c-1.1,1.2-1.7,2.9-1.7,5c-0.1,1.7,0.5,3.3,1.5,4.6c1,1.2,2.6,1.8,4.6,1.8
		s3.7-0.7,4.8-2.1c0.6-0.8,1-1.8,1.1-2.8h-3.5c0,0.6-0.3,1.1-0.6,1.6c-0.4,0.5-1.1,0.7-1.7,0.6c-1,0.1-2-0.6-2.3-1.6
		c-0.3-0.7-0.4-1.5-0.3-2.2c0-0.8,0.1-1.6,0.3-2.3C139.3,12.5,140.3,11.9,141.4,11.9z"/>
	<path class="st0" d="M134.1,9.2c-7.2,0-6.8,6.4-6.8,6.4v6.5h3.3V16c0-0.8,0.1-1.5,0.4-2.2c0.4-0.9,1.3-1.3,2.6-1.3h0.4
		c0.2,0,0.3,0,0.6,0V9.2h-0.3L134.1,9.2z"/>
	<path class="st0" d="M124.7,11.6c-0.5-0.8-1.3-1.4-2.2-1.8c-0.9-0.4-1.9-0.6-2.9-0.6c-1.7-0.1-3.3,0.6-4.5,1.7
		c-1.1,1.1-1.7,2.8-1.7,5c0,2.3,0.6,4,1.9,5c1.2,1,2.8,1.6,4.4,1.5c1.8,0.1,3.5-0.6,4.7-1.8c0.5-0.5,0.9-1.2,1.1-1.9h-3.5
		c-0.1,0.2-0.3,0.4-0.4,0.5c-0.5,0.4-1.2,0.6-1.8,0.5c-0.6,0-1.2-0.1-1.7-0.4c-0.9-0.6-1.4-1.6-1.3-2.6h9.1c0-0.8,0-1.7-0.1-2.5
		C125.6,13.3,125.2,12.4,124.7,11.6z M116.8,14.5c0.1-0.7,0.4-1.4,0.9-1.9c0.5-0.5,1.2-0.8,1.9-0.7c0.7,0,1.4,0.2,1.9,0.7
		c0.6,0.5,0.9,1.2,0.9,2L116.8,14.5z"/>
	<path class="st0" d="M107,9.2c-1.4,0-2.8,0.6-3.7,1.7c-0.9-1.1-2.3-1.8-3.7-1.7c-3.2,0-5.3,2.4-5.3,5.5v7.5h3v-7.5
		c-0.1-1.2,0.8-2.2,2.1-2.3c0.1,0,0.1,0,0.2,0c2,0,2.2,1.6,2.2,2.3v7.5h3v-7.5c-0.1-1.2,0.9-2.3,2.1-2.3c0.1,0,0.1,0,0.2,0
		c1.2-0.1,2.2,0.8,2.2,2c0,0.1,0,0.2,0,0.3v7.5h3v-7.5C112.2,11.4,110.2,9.2,107,9.2z"/>
	<path class="st0" d="M169,7.6v3.5c-0.3-0.6-0.8-1.1-1.4-1.4c-0.6-0.3-1.3-0.5-2-0.5c-1.5-0.1-3,0.6-3.9,1.8
		c-1.1,1.5-1.6,3.3-1.5,5.1c-0.1,1.6,0.5,3.2,1.5,4.5c1,1.2,2.9,1.7,4.7,1.7c6,0,6-5.2,6-5.2V5.2C172.4,5.2,169,4.9,169,7.6z
		 M168.4,18.6c-0.5,0.7-1.3,1.1-2.1,1c-0.8,0-1.6-0.4-2-1c-0.5-0.9-0.7-1.9-0.7-2.8c0-0.9,0.2-1.8,0.7-2.6c0.4-0.7,1.2-1.1,2.1-1.1
		c0.6,0,1.2,0.2,1.6,0.6c0.8,0.7,1.2,1.8,1.2,3.4C169.2,17,168.9,17.9,168.4,18.6L168.4,18.6z"/>
	<path class="st0" d="M101.2,27.1c-2.7-0.1-4.1,0.5-5,1.2c-1.2,0.9-2,2.3-2,4.5v11.4h1.6c0.4,0,0.8-0.1,1.2-0.4
		c0.3-0.3,0.5-0.7,0.5-1.2v-4.3c0.4,0.6,0.9,1.2,1.5,1.5c0.7,0.3,1.4,0.4,2.1,0.4c1.5,0,2.8-0.6,3.7-1.8c1-1.4,1.5-3.1,1.4-4.8
		c0.1-1.7-0.5-3.4-1.6-4.7C103.9,27.8,102.6,27.1,101.2,27.1z M102.3,36.4c-0.4,0.7-1.2,1-2,1c-0.8,0-1.6-0.3-2.1-1
		c-0.5-0.8-0.8-1.8-0.7-2.7c-0.1-1,0.2-2,0.7-2.9c0.5-0.7,1.2-1,2-1c0.8,0,1.6,0.3,2.1,1c0.5,0.9,0.8,1.9,0.7,2.9
		C103,34.7,102.8,35.6,102.3,36.4z"/>
	<path class="st0" d="M129.3,28.3c-1.2-0.9-2.7-1.4-4.2-1.2c-2,0.1-3.4,0.6-4.3,1.8c-0.9,1.4-1.4,3.1-1.3,4.8
		c-0.1,1.4,0.3,2.8,1,4.1c0.6,0.9,1.4,1.7,2.4,2.1c0.9,0.4,1.9,0.5,2.9,0.2c1-0.2,1.8-0.8,2.3-1.7v0.8c0,0.8-0.3,1.6-0.7,2.3
		c-0.4,0.5-0.9,0.8-1.4,0.9c-0.5,0.1-1.1,0-1.6-0.2c-0.5-0.2-0.9-0.6-1.2-1h-3.5c0.9,2.7,2.5,3.9,5.4,4.1c4.6,0.3,6.2-3.6,6.2-5.7
		v-6.7C131.3,30.6,130.5,29.2,129.3,28.3z M127.9,34.8c-0.1,0.6-0.3,1.2-0.6,1.6c-0.6,0.8-1.5,1.1-2.8,0.9c-1.3-0.2-1.9-1.5-1.9-3.6
		c0-0.9,0.2-1.9,0.6-2.7c0.4-0.8,1.3-1.3,2.2-1.2c0.7,0,1.4,0.3,1.8,0.9c0.4,0.6,0.7,1.2,0.8,2C128.1,33.4,128.1,34.1,127.9,34.8z"
		/>
	<path class="st0" d="M116.6,27.9c-1.1-0.6-2.4-0.8-3.7-0.8c-2.1,0-3.6,0.5-4.5,1.6c-0.6,0.8-0.9,1.7-0.9,2.7h3.1
		c0.1-0.4,0.2-0.8,0.5-1.1c0.4-0.4,1.1-0.6,1.7-0.6c0.5,0,1.1,0.1,1.6,0.3c0.4,0.2,0.6,0.6,0.5,1.1c0,0.4-0.3,0.8-0.7,0.9
		c-0.4,0.2-0.9,0.2-1.3,0.3l-1.1,0.1c-1,0.1-2,0.4-2.9,0.8c-1.2,0.7-1.9,2-1.8,3.3c-0.1,1,0.3,2,1.1,2.7c0.8,0.6,1.8,1,2.8,1
		c7.1,0.3,7-3.8,7.1-4.6v-4.7C118.2,29.5,117.7,28.5,116.6,27.9z M115,35c0.1,0.9-0.3,1.7-0.9,2.3c-0.6,0.4-1.3,0.6-2,0.6
		c-0.4,0-0.8-0.1-1.2-0.4c-0.3-0.3-0.5-0.8-0.5-1.2c0-0.6,0.3-1.1,0.8-1.4c0.5-0.2,1-0.4,1.5-0.4l0.7-0.1c0.3,0,0.6-0.1,0.9-0.2
		c0.2-0.1,0.5-0.2,0.7-0.3L115,35L115,35z"/>
	<path class="st0" d="M143.7,29c-1.1-1.3-2.6-2-4.8-2c-2.1,0-3.7,0.7-4.8,2c-2.1,2.8-2.1,6.6,0,9.3c1.1,1.3,2.6,1.9,4.8,1.9
		c2.1,0,3.7-0.7,4.8-1.9C145.8,35.6,145.8,31.7,143.7,29z M141.1,36.5c-1,1.2-2.8,1.4-4.1,0.3c-0.1-0.1-0.2-0.2-0.3-0.3
		c-1-1.8-1-4,0-5.8c1-1.2,2.9-1.4,4.1-0.3c0.1,0.1,0.2,0.2,0.3,0.3c0.6,0.9,0.8,1.9,0.8,2.9C141.9,34.7,141.6,35.7,141.1,36.5z"/>
</g>
</svg>
