<?xml version="1.0" encoding="utf-8"?>
<!-- Generator: Adobe Illustrator 24.1.1, SVG Export Plug-In . SVG Version: 6.00 Build 0)  -->
<svg version="1.1" id="Capa_1" xmlns="http://www.w3.org/2000/svg" xmlns:xlink="http://www.w3.org/1999/xlink" x="0px" y="0px"
	 viewBox="0 0 247.9 33.4" style="enable-background:new 0 0 247.9 33.4;" xml:space="preserve">
<style type="text/css">
	.st0{fill:#FFFFFF;}
	.st1{fill:#0833BC;}
</style>
<g>
	<path class="st0" d="M2.9,32L6.8,3.9h13.7c3.5,0,6.3,0.8,8.3,2.4c2,1.6,3,3.8,3,6.5c0,0.5,0,1-0.1,1.6c-0.3,2.1-1,4-2.3,5.6
		c-1.2,1.6-2.9,2.8-4.9,3.7c-2,0.9-4.4,1.3-7,1.3h-3.5l-1,7H2.9z M17.2,18c1.3,0,2.3-0.4,3.2-1.2c0.8-0.8,1.3-1.8,1.3-3
		c0-0.9-0.3-1.6-0.9-2.1c-0.6-0.5-1.4-0.8-2.5-0.8h-2.3l-1,7H17.2z"/>
	<path class="st0" d="M39.7,32h-8.9l4.1-29.3h8.9L39.7,32z"/>
	<path class="st0" d="M66,11.7L63.1,32h-8.9l0.4-3.1h-0.4c-1,1.3-1.9,2.2-2.9,2.7c-0.9,0.5-1.9,0.8-3,0.8c-1.7,0-3-0.6-4-1.8
		c-1-1.2-1.5-2.7-1.5-4.6c0-0.5,0-1,0.1-1.4l1.8-12.9h8.9l-1.5,10.9c0,0.1,0,0.3,0,0.5c0,0.5,0.1,1,0.4,1.3c0.3,0.3,0.6,0.5,1.1,0.5
		c0.5,0,1-0.2,1.3-0.6s0.6-1,0.7-1.7l1.5-10.9H66z"/>
	<path class="st0" d="M68,31c-1.6-1.1-2.5-2.6-2.5-4.5c0-0.2,0-0.6,0.1-1H73c-0.1,0.6,0.1,1.1,0.6,1.5s1.2,0.6,2,0.6
		c0.6,0,1.2-0.1,1.6-0.4c0.5-0.3,0.7-0.7,0.7-1.1c0-0.4-0.2-0.7-0.7-0.9c-0.5-0.2-1.2-0.3-2.2-0.4c-1.9-0.2-3.3-0.3-4.3-0.5
		c-1-0.2-2-0.7-2.9-1.4c-0.9-0.7-1.3-1.9-1.3-3.4c0-1.7,0.5-3.1,1.4-4.4c0.9-1.3,2.3-2.2,3.9-2.9c1.7-0.7,3.6-1,5.8-1
		c1.8,0,3.4,0.2,4.8,0.7c1.4,0.5,2.5,1.2,3.3,2.1s1.2,2,1.2,3.2c0,0.3,0,0.6,0,0.8h-7.8c0.1-0.5-0.1-0.9-0.5-1.2
		c-0.4-0.3-1-0.5-1.6-0.5c-0.6,0-1.1,0.1-1.5,0.4c-0.4,0.2-0.6,0.6-0.6,1c0,0.4,0.3,0.7,0.9,0.9c0.6,0.2,1.5,0.3,2.9,0.5
		c0.2,0,0.4,0,0.9,0.1c2.2,0.2,4.1,0.7,5.5,1.4c1.4,0.7,2.1,1.9,2.1,3.7c0,0.2,0,0.5-0.1,0.9c-0.3,2.4-1.6,4.2-3.8,5.6
		s-5,2.1-8.5,2.1C71.9,32.6,69.6,32.1,68,31z"/>
	<path class="st0" d="M87.9,32l3.9-28.2h13.7c3.5,0,6.3,0.8,8.3,2.4c2,1.6,3,3.8,3,6.5c0,0.5,0,1-0.1,1.6c-0.3,2.1-1,4-2.3,5.6
		c-1.2,1.6-2.9,2.8-4.9,3.7c-2,0.9-4.4,1.3-7,1.3H99l-1,7H87.9z M102.3,18c1.3,0,2.3-0.4,3.2-1.2c0.8-0.8,1.3-1.8,1.3-3
		c0-0.9-0.3-1.6-0.9-2.1c-0.6-0.5-1.4-0.8-2.5-0.8H101l-1,7H102.3z"/>
	<path class="st0" d="M118.7,30.1c-1.8-1.6-2.7-3.7-2.7-6.5c0-0.5,0-1.1,0.1-1.8c0.3-2.2,1.1-4,2.3-5.6c1.2-1.6,2.7-2.8,4.6-3.7
		c1.9-0.8,4-1.3,6.2-1.3c3.1,0,5.5,0.8,7.3,2.3c1.7,1.5,2.6,3.7,2.6,6.4c0,0.4-0.1,1.1-0.2,2c-0.1,0.4-0.1,0.8-0.2,1.2
		s-0.2,0.8-0.2,1H125c0.2,1.6,1.1,2.3,2.5,2.3c1.2,0,2-0.5,2.5-1.6l7.6,1c-0.7,2-2,3.5-4.2,4.7c-2.1,1.2-4.6,1.8-7.3,1.8
		C123,32.4,120.5,31.6,118.7,30.1z M130.3,19.9l0-0.4c0-0.7-0.2-1.2-0.6-1.7c-0.4-0.5-0.9-0.7-1.5-0.7c-1.3,0-2.2,0.9-2.8,2.7H130.3
		z"/>
	<path class="st0" d="M141.8,30.3c-1.2-1.4-1.8-3.4-1.8-5.9c0-0.7,0.1-1.5,0.2-2.5c0.3-2.2,0.9-4,1.8-5.6c0.9-1.6,2.1-2.8,3.4-3.7
		c1.4-0.8,2.9-1.3,4.6-1.3c1.1,0,2.1,0.2,2.9,0.6c0.8,0.4,1.4,1.1,2,1.9h0.4l1.6-11.2h8.9L161.6,32h-8.9l0.3-2.2h-0.4
		c-0.8,0.9-1.6,1.5-2.5,1.9c-0.9,0.4-1.9,0.6-3.1,0.6C144.8,32.4,143.1,31.7,141.8,30.3z M153.6,23.9c0.6-0.7,0.9-1.6,0.9-2.6
		c0-0.8-0.2-1.4-0.6-1.8c-0.4-0.5-1-0.7-1.7-0.7c-0.9,0-1.6,0.4-2.2,1.1c-0.6,0.7-0.9,1.6-0.9,2.6c0,0.8,0.2,1.4,0.6,1.8
		s1,0.7,1.7,0.7C152.2,25,153,24.6,153.6,23.9z"/>
	<path class="st0" d="M172.8,32H164l2.9-20.3h8.9L172.8,32z M168.4,9c-0.8-0.7-1.2-1.7-1.2-2.9c0-1,0.3-1.9,0.8-2.8
		c0.5-0.8,1.2-1.5,2-2c0.8-0.5,1.8-0.7,2.8-0.7c1.3,0,2.3,0.4,3.1,1.1c0.8,0.7,1.2,1.7,1.2,2.9c0,1-0.2,1.9-0.7,2.8
		c-0.5,0.8-1.2,1.5-2,2c-0.8,0.5-1.8,0.7-2.8,0.7C170.2,10.1,169.2,9.8,168.4,9z"/>
	<path class="st0" d="M177.5,30.3c-1.2-1.4-1.8-3.4-1.8-5.9c0-0.7,0.1-1.5,0.2-2.5c0.3-2.2,0.9-4,1.8-5.6c0.9-1.6,2.1-2.8,3.4-3.7
		c1.4-0.8,2.9-1.3,4.6-1.3c1.1,0,2.1,0.2,2.9,0.6c0.8,0.4,1.4,1.1,2,1.9h0.4l1.6-11.2h8.9L197.3,32h-8.9l0.3-2.2h-0.4
		c-0.8,0.9-1.6,1.5-2.5,1.9c-0.9,0.4-1.9,0.6-3.1,0.6C180.5,32.4,178.8,31.7,177.5,30.3z M189.3,23.9c0.6-0.7,0.9-1.6,0.9-2.6
		c0-0.8-0.2-1.4-0.6-1.8c-0.4-0.5-1-0.7-1.7-0.7c-0.9,0-1.6,0.4-2.2,1.1c-0.6,0.7-0.9,1.6-0.9,2.6c0,0.8,0.2,1.4,0.6,1.8
		s1,0.7,1.7,0.7C187.9,25,188.7,24.6,189.3,23.9z"/>
	<path class="st0" d="M202.9,30.2c-1.8-1.5-2.7-3.6-2.7-6.4c0-0.4,0.1-1,0.2-1.9c0.5-3.4,1.9-6,4.2-7.8s5.3-2.8,8.9-2.8
		c3.2,0,5.8,0.8,7.6,2.3c1.8,1.5,2.7,3.6,2.7,6.4c0,0.4-0.1,1-0.2,1.9c-0.5,3.4-1.9,6-4.2,7.8s-5.3,2.8-8.9,2.8
		C207.2,32.4,204.7,31.7,202.9,30.2z M213.7,23.9c0.6-0.7,0.9-1.6,0.9-2.7c0-0.8-0.2-1.4-0.6-1.8c-0.4-0.5-1-0.7-1.7-0.7
		c-0.9,0-1.7,0.4-2.3,1.1c-0.6,0.7-0.9,1.6-0.9,2.7c0,0.8,0.2,1.4,0.6,1.8c0.4,0.5,1,0.7,1.7,0.7C212.4,25,213.1,24.6,213.7,23.9z"
		/>
	<path class="st0" d="M226.2,31c-1.6-1.1-2.5-2.6-2.5-4.5c0-0.2,0-0.6,0.1-1h7.4c-0.1,0.6,0.1,1.1,0.6,1.5s1.2,0.6,2,0.6
		c0.6,0,1.2-0.1,1.6-0.4c0.5-0.3,0.7-0.7,0.7-1.1c0-0.4-0.2-0.7-0.7-0.9c-0.5-0.2-1.2-0.3-2.2-0.4c-1.9-0.2-3.3-0.3-4.3-0.5
		c-1-0.2-2-0.7-2.9-1.4c-0.9-0.7-1.3-1.9-1.3-3.4c0-1.7,0.5-3.1,1.4-4.4c0.9-1.3,2.3-2.2,3.9-2.9c1.7-0.7,3.6-1,5.8-1
		c1.8,0,3.4,0.2,4.8,0.7c1.4,0.5,2.5,1.2,3.3,2.1s1.2,2,1.2,3.2c0,0.3,0,0.6,0,0.8h-7.8c0.1-0.5-0.1-0.9-0.5-1.2
		c-0.4-0.3-1-0.5-1.6-0.5c-0.6,0-1.1,0.1-1.5,0.4c-0.4,0.2-0.6,0.6-0.6,1c0,0.4,0.3,0.7,0.9,0.9c0.6,0.2,1.5,0.3,2.9,0.5
		c0.2,0,0.4,0,0.9,0.1c2.2,0.2,4.1,0.7,5.5,1.4c1.4,0.7,2.1,1.9,2.1,3.7c0,0.2,0,0.5-0.1,0.9c-0.3,2.4-1.6,4.2-3.8,5.6
		s-5,2.1-8.5,2.1C230.1,32.6,227.8,32.1,226.2,31z"/>
</g>
</svg>
