<?xml version="1.0" encoding="utf-8"?>
<!-- Generator: Adobe Illustrator 24.1.1, SVG Export Plug-In . SVG Version: 6.00 Build 0)  -->
<svg version="1.1" id="Capa_1" xmlns="http://www.w3.org/2000/svg" xmlns:xlink="http://www.w3.org/1999/xlink" x="0px" y="0px"
	 viewBox="0 0 213.5 50.5" style="enable-background:new 0 0 213.5 50.5;" xml:space="preserve">
<style type="text/css">
	.st0{fill:#FFFFFF;}
</style>
<path class="st0" d="M61.9,20.6c0,2.2-1.8,3.9-3.9,3.9c-2.2,0-3.9-1.8-3.9-3.9s1.8-3.9,3.9-3.9C60.1,16.6,61.9,18.4,61.9,20.6z
	 M58,26c-2.2,0-3.9,1.8-3.9,3.9s1.8,3.9,3.9,3.9c2.2,0,3.9-1.8,3.9-3.9S60.1,26,58,26z M81.6,25.3c0,10.5-8.5,19-19,19
	s-19-8.5-19-19s8.5-19,19-19S81.6,14.8,81.6,25.3z M76.6,25.3c0-7.7-6.2-13.9-13.9-13.9s-13.9,6.2-13.9,13.9S55,39.2,62.7,39.2
	S76.6,33,76.6,25.3z M67.4,26c-2.2,0-3.9,1.8-3.9,3.9s1.8,3.9,3.9,3.9c2.2,0,3.9-1.8,3.9-3.9S69.5,26,67.4,26z M67.4,16.6
	c-2.2,0-3.9,1.8-3.9,3.9s1.8,3.9,3.9,3.9c2.2,0,3.9-1.8,3.9-3.9S69.5,16.6,67.4,16.6z M132.6,13.7c0.1,0,0.3,0.1,0.4,0.3v4
	c0,0.3-0.3,0.4-0.4,0.4h-6.7c-0.3,0-0.4-0.3-0.4-0.4v-3.9c0-0.3,0.3-0.4,0.4-0.4C125.9,13.7,132.6,13.7,132.6,13.7z M132.5,19.4
	h-12.9c-0.1,0-0.4,0.1-0.4,0.4l-1.6,6.3l-0.1,0.4l-2-6.7c0-0.1-0.3-0.4-0.4-0.4H110c-0.1,0-0.4,0.1-0.4,0.4l-1.9,6.3l-0.1,0.4
	l-0.1-0.4l-0.8-3.2l-0.8-3.2c0-0.1-0.3-0.4-0.4-0.4H95.4V14c0-0.1-0.3-0.4-0.5-0.3l-6.3,2c-0.3,0-0.4,0.1-0.4,0.4v3.4h-1.6
	c-0.1,0-0.4,0.1-0.4,0.4v4.8c0,0.1,0.1,0.4,0.4,0.4h1.6v5.9c0,4.2,2.3,6.1,6.5,6.1c1.8,0,3.4-0.4,4.6-1v-5.1c0-0.3-0.3-0.4-0.4-0.3
	c-0.6,0.3-1.3,0.4-1.8,0.4c-1.1,0-1.8-0.5-1.8-1.8v-4.3H99c0.1,0,0.4-0.1,0.4-0.4v-4l4.8,15.9c0,0.1,0.3,0.4,0.4,0.4h5.3
	c0.1,0,0.4-0.1,0.4-0.4l2.3-7.1l1.1,3.7l1,3.4c0,0.1,0.3,0.4,0.4,0.4h5.3c0.1,0,0.4-0.1,0.4-0.4l4.8-15.9v15.9
	c0,0.1,0.1,0.4,0.4,0.4h6.5c0.1,0,0.4-0.1,0.4-0.4V19.8C132.7,19.7,132.6,19.4,132.5,19.4z M141,13.7h-6.5c-0.1,0-0.4,0.1-0.4,0.4
	v22.4c0,0.1,0.1,0.4,0.4,0.4h6.5c0.1,0,0.4-0.1,0.4-0.4V14C141.3,13.9,141.2,13.7,141,13.7z M149.6,13.7h-6.7
	c-0.1,0-0.4,0.1-0.4,0.4V18c0,0.1,0.1,0.4,0.4,0.4h6.7c0.1,0,0.4-0.1,0.4-0.4v-4C149.9,13.9,149.8,13.7,149.6,13.7z M149.4,19.4H143
	c-0.1,0-0.4,0.1-0.4,0.4v16.6c0,0.1,0.1,0.4,0.4,0.4h6.5c0.1,0,0.4-0.1,0.4-0.4V19.8C149.8,19.7,149.7,19.4,149.4,19.4z M169.8,28
	c0,4.8-4,9-9.7,9c-5.6,0-9.6-4.2-9.6-9s4-9,9.7-9C165.8,19.1,169.8,23.2,169.8,28z M163,28.2c0-1.8-1.3-3.2-2.8-3
	c-1.6,0-2.8,1.4-2.8,3s1.3,3,2.8,3C161.8,31.2,163,29.8,163,28.2z"/>
</svg>
