<?xml version="1.0" encoding="utf-8"?>
<!-- Generator: Adobe Illustrator 24.1.1, SVG Export Plug-In . SVG Version: 6.00 Build 0)  -->
<svg version="1.1" id="Capa_1" xmlns="http://www.w3.org/2000/svg" xmlns:xlink="http://www.w3.org/1999/xlink" x="0px" y="0px"
	 viewBox="0 0 213.5 50.5" style="enable-background:new 0 0 213.5 50.5;" xml:space="preserve">
<style type="text/css">
	.st0{fill:#FFFFFF;}
</style>
<g>
	<path class="st0" d="M68.1,16c1.6,6.2,3.3,12.3,4.9,18.5c1.3,0,2.6,0,3.8,0c0.2,0,0.3-0.1,0.4-0.3c0.9-3.8,1.8-7.5,2.8-11.3
		c0.1-0.3,0.2-0.7,0.3-1c0,0,0,0,0.1,0c1,4.2,2.1,8.4,3.1,12.5c0,0,0.1,0,0.1,0c1.3,0,2.5,0,3.8,0c0.2,0,0.2-0.1,0.2-0.2
		c1.5-5.7,3.1-11.4,4.6-17.1c0.1-0.4,0.2-0.8,0.3-1.2c-1.4,0-2.7,0-4,0c-1,4.2-2,8.5-3,12.7c-0.1-0.1-0.1-0.2-0.1-0.2
		c-1-4.1-2-8.1-3-12.2C82.3,16.1,82.2,16,82,16c-1.1,0-2.2,0-3.3,0c-0.2,0-0.3,0.1-0.3,0.3c-0.9,3.5-1.8,7-2.7,10.5
		c-0.2,0.6-0.3,1.2-0.5,1.8c0,0,0,0-0.1,0c-1-4.2-2-8.4-2.9-12.6C70.9,16,69.5,16,68.1,16z"/>
	<path class="st0" d="M93.3,16c0,6.2,0,12.3,0,18.5c1.2,0,2.5,0,3.7,0c0-0.1,0-0.2,0-0.3c0-2.3,0-4.7,0-7c0-0.6,0.1-1.2,0.2-1.7
		c0.2-0.8,0.7-1.5,1.6-1.7c0.4-0.1,0.8-0.1,1.2-0.1c1,0,1.7,0.5,1.9,1.5c0.1,0.5,0.2,1,0.2,1.6c0,2.5,0,5,0,7.5c0,0.1,0,0.2,0,0.3
		c1.3,0,2.5,0,3.7,0c0-0.1,0-0.2,0-0.3c0-2.7,0-5.3,0-8c0-0.7-0.1-1.5-0.2-2.2c-0.2-1.2-0.8-2.1-1.8-2.7c-0.8-0.4-1.6-0.6-2.5-0.6
		c-1.8-0.1-3.3,0.6-4.3,2.1c0,0,0,0-0.1,0.1c0-2.4,0-4.7,0-7C95.8,16,94.6,16,93.3,16z"/>
	<path class="st0" d="M142.3,25c-0.1-0.4-0.1-0.7-0.2-1.1c-0.4-1.4-1.4-2.3-2.7-2.7c-2.1-0.7-4.2-0.7-6.3,0
		c-1.6,0.6-2.5,1.7-2.6,3.5c-0.1,1.3,0.4,2.4,1.6,3c0.4,0.2,0.8,0.4,1.3,0.5c1.1,0.3,2.1,0.5,3.2,0.8c0.6,0.2,1.2,0.4,1.8,0.6
		c0.8,0.4,0.9,1.3,0.3,2c-0.2,0.2-0.4,0.3-0.6,0.4c-1.1,0.5-2.1,0.4-3.1,0c-0.6-0.3-1-0.8-1.1-1.4c0-0.1,0-0.3-0.1-0.5
		c-1.2,0-2.3,0-3.5,0c0,0.5,0.1,1,0.3,1.5c0.5,1.4,1.5,2.2,2.9,2.7c1.8,0.6,3.7,0.6,5.6,0.2c0.6-0.1,1.3-0.4,1.8-0.7
		c1.4-0.9,1.9-2.2,1.9-3.8c0-1.2-0.7-2.1-1.7-2.7c-0.4-0.2-0.9-0.4-1.3-0.5c-1.1-0.3-2.2-0.5-3.3-0.8c-0.6-0.1-1.2-0.3-1.7-0.7
		c-0.2-0.1-0.3-0.3-0.4-0.5c-0.2-0.6,0.1-1.2,0.7-1.4c0.7-0.3,1.5-0.2,2.3-0.1c0.9,0.2,1.4,0.7,1.5,1.6c0,0,0,0,0,0.1
		C140,25,141.1,25,142.3,25z"/>
	<path class="st0" d="M121.1,21.1c0,0.8,0,1.6,0,2.5c0.7,0,1.5,0,2.2,0c0,0.1,0,0.2,0,0.3c0,2.5,0,5.1,0,7.6c0,0.7,0.1,1.3,0.5,1.9
		c0.5,0.7,1.1,1,1.9,1.1c0.8,0.2,1.7,0.2,2.6,0.2c0.5,0,1-0.1,1.5-0.1c0-1,0-1.9,0-2.9c-0.2,0-0.4,0.1-0.7,0.1c-0.2,0-0.4,0-0.7,0
		c-1,0-1.3-0.4-1.3-1.3c0-2.2,0-4.5,0-6.7c0-0.1,0-0.1,0-0.2c0.9,0,1.8,0,2.7,0c0-0.8,0-1.6,0-2.5c-0.9,0-1.8,0-2.7,0
		c0-1.3,0-2.7,0-4c-1.2,0-2.5,0-3.7,0c0,1.3,0,2.7,0,4C122.6,21.1,121.9,21.1,121.1,21.1z"/>
	<path class="st0" d="M43.8,6C44,6,44.3,6,44.6,6.1c4.5,0.4,8.3,2.2,11.6,5.2c2.9,2.7,4.8,6.1,5.5,10c1.2,6.3-0.3,11.9-4.6,16.7
		c-2.9,3.3-6.7,5.3-11,6c-3.9,0.6-7.6,0.1-11.2-1.5c-0.1,0-0.3-0.1-0.4,0c-3.2,0.7-6.4,1.4-9.6,2.1c-0.3,0.1-0.4,0-0.3-0.3
		c0.5-3.2,1.1-6.5,1.6-9.7c0-0.1,0-0.3-0.1-0.4c-1.3-2.4-2-4.9-2.2-7.5c0-0.2,0-0.3-0.1-0.5c0-0.7,0-1.3,0-2c0-0.1,0-0.1,0-0.2
		c0.1-0.7,0.1-1.4,0.2-2c0.7-4.2,2.6-7.8,5.7-10.7c3.2-3.1,7.1-4.8,11.5-5.2C41.6,6,41.9,6,42.1,6C42.7,6,43.2,6,43.8,6z M28.3,40.4
		c2.1-0.5,4.2-1,6.3-1.5c0.4-0.1,0.7-0.1,1,0.1c3.2,1.6,6.5,2.2,10,1.6c4-0.7,7.3-2.6,9.7-5.8c2.9-3.7,3.9-8,3.1-12.6
		c-0.6-3.5-2.4-6.5-5.1-8.9c-3.8-3.3-8.3-4.6-13.3-3.7c-4.5,0.8-8,3.2-10.4,7c-2.1,3.3-2.9,6.9-2.3,10.8c0.3,2.1,1.1,4.1,2.2,6
		c0.1,0.1,0.1,0.3,0.1,0.4c-0.3,1.7-0.6,3.3-0.9,5C28.5,39.3,28.4,39.8,28.3,40.4z"/>
	<path class="st0" d="M68.1,16c1.4,0,2.7,0,4.1,0c1,4.2,2,8.4,2.9,12.6c0,0,0,0,0.1,0c0.2-0.6,0.3-1.2,0.5-1.8
		c0.9-3.5,1.8-7,2.7-10.5c0-0.2,0.1-0.3,0.3-0.3c1.1,0,2.2,0,3.3,0c0.2,0,0.3,0.1,0.4,0.3c1,4.1,2,8.2,3,12.2c0,0.1,0,0.1,0.1,0.2
		c1-4.2,2-8.5,3-12.7c1.3,0,2.7,0,4,0c-0.1,0.4-0.2,0.8-0.3,1.2c-1.5,5.7-3.1,11.4-4.6,17.1c0,0.1,0,0.2-0.2,0.2c-1.3,0-2.5,0-3.8,0
		c0,0,0,0-0.1,0c-1-4.2-2.1-8.4-3.1-12.6c0,0,0,0-0.1,0c-0.1,0.3-0.2,0.7-0.3,1c-0.9,3.8-1.8,7.5-2.8,11.3c-0.1,0.2-0.1,0.3-0.4,0.3
		c-1.3,0-2.5,0-3.8,0C71.4,28.4,69.8,22.2,68.1,16z"/>
	<path class="st0" d="M160.7,34.6c-1.4,0-2.8,0-4.1,0c-0.2,0-0.2-0.1-0.2-0.2c-0.4-1.2-0.8-2.5-1.3-3.7c0-0.1-0.1-0.2-0.3-0.2
		c-2.2,0-4.3,0-6.5,0c-0.2,0-0.2,0.1-0.3,0.2c-0.4,1.2-0.9,2.5-1.3,3.7c0,0.1-0.1,0.2-0.2,0.2c-1.3,0-2.6,0-3.8,0c0,0-0.1,0-0.1,0
		c0.1-0.4,0.3-0.7,0.4-1c2.2-5.8,4.4-11.5,6.5-17.3c0.1-0.2,0.1-0.2,0.3-0.2c1.3,0,2.5,0,3.8,0c0.1,0,0.2,0,0.3,0.2
		c2.3,6.1,4.5,12.1,6.8,18.2C160.7,34.4,160.7,34.5,160.7,34.6z M151.7,20.6C151.7,20.6,151.7,20.6,151.7,20.6
		c-0.9,2.3-1.7,4.5-2.5,6.7c1.6,0,3.2,0,4.8,0C153.2,25.1,152.5,22.9,151.7,20.6z"/>
	<path class="st0" d="M176,21.1c1.2,0,2.3,0,3.5,0c0,0.6,0,1.1,0,1.7c0,0,0.1,0,0.1,0.1c0,0,0-0.1,0-0.1c0.7-1.1,1.7-1.7,3-1.9
		c1.7-0.2,3.3,0.1,4.7,1.2c1.1,0.9,1.7,2,2,3.4c0.5,2,0.5,4-0.3,5.9c-0.7,1.7-1.9,3-3.8,3.4c-1.5,0.4-3,0.2-4.4-0.7
		c-0.4-0.3-0.8-0.7-1.2-1.1c0,2.1,0,4.2,0,6.3c-1.2,0-2.5,0-3.7,0C176,33.2,176,27.2,176,21.1z M186,27.7c0-0.3-0.1-0.8-0.1-1.2
		c-0.1-0.8-0.5-1.6-1.1-2.2c-1.2-1.2-3.8-1.2-4.7,1c-0.3,0.6-0.4,1.3-0.4,2c-0.1,1.1,0,2.2,0.5,3.2c0.5,1.1,1.4,1.7,2.6,1.7
		c1.3,0,2.2-0.5,2.8-1.7C185.9,29.6,186,28.8,186,27.7z"/>
	<path class="st0" d="M165,32.9c0,2.1,0,4.2,0,6.3c-1.2,0-2.5,0-3.7,0c0-6,0-12.1,0-18.1c1.2,0,2.3,0,3.5,0c0,0.6,0,1.1,0,1.7
		c0,0,0.1,0,0.1-0.1c0.7-1.1,1.7-1.7,3-1.9c1.7-0.2,3.3,0.1,4.7,1.2c1.1,0.9,1.7,2.1,2,3.4c0.5,2,0.5,4-0.3,5.9
		c-0.6,1.6-1.8,2.8-3.4,3.3c-1.6,0.5-3.1,0.4-4.6-0.5C165.8,33.8,165.4,33.4,165,32.9z M171.3,27.6c0-0.3-0.1-0.8-0.2-1.3
		c-0.2-0.9-0.6-1.7-1.3-2.2c-1.5-1.1-3.6-0.6-4.4,1.1c-0.3,0.6-0.4,1.3-0.5,2c-0.1,1,0,2.1,0.4,3c0.5,1.1,1.3,1.8,2.6,1.9
		c1.3,0.1,2.3-0.5,2.9-1.6C171.2,29.7,171.3,28.8,171.3,27.6z"/>
	<path class="st0" d="M93.3,16c1.2,0,2.5,0,3.7,0c0,2.3,0,4.6,0,7c0.1-0.1,0.1-0.1,0.1-0.1c1-1.6,2.5-2.2,4.3-2.1
		c0.9,0,1.7,0.2,2.5,0.6c1.1,0.6,1.6,1.5,1.8,2.7c0.1,0.7,0.2,1.5,0.2,2.2c0,2.7,0,5.3,0,8c0,0.1,0,0.2,0,0.3c-1.2,0-2.5,0-3.7,0
		c0-0.1,0-0.2,0-0.3c0-2.5,0-5,0-7.5c0-0.5-0.1-1.1-0.2-1.6c-0.3-1-0.9-1.5-1.9-1.5c-0.4,0-0.8,0-1.2,0.1c-0.9,0.2-1.4,0.8-1.6,1.7
		c-0.1,0.6-0.2,1.2-0.2,1.7c0,2.3,0,4.7,0,7c0,0.1,0,0.2,0,0.3c-1.2,0-2.5,0-3.7,0C93.3,28.4,93.3,22.2,93.3,16z"/>
	<path class="st0" d="M111.6,25.2c-1.2,0-2.4,0-3.7,0c0-0.8,0.2-1.5,0.7-2.2c0.6-0.9,1.5-1.5,2.6-1.9c2.1-0.6,4.2-0.6,6.3,0
		c0.6,0.2,1.2,0.5,1.6,0.9c0.7,0.6,1,1.4,1,2.3c0,2.3,0,4.6,0,7c0,0.8,0.1,1.6,0.2,2.4c0,0.2,0.1,0.5,0.2,0.7c0,0-0.1,0-0.2,0
		c-1.1,0-2.2,0-3.3,0c-0.2,0-0.2-0.1-0.3-0.2c-0.1-0.3-0.1-0.7-0.2-1c0,0,0,0-0.1,0c-0.8,0.8-1.8,1.2-3,1.4
		c-1.1,0.2-2.2,0.2-3.2-0.1c-1.8-0.5-2.8-1.8-2.8-3.6c0-1,0.2-1.9,0.8-2.6c0.5-0.6,1.2-1,2-1.2c1.2-0.3,2.4-0.5,3.6-0.6
		c0.5-0.1,1-0.2,1.5-0.3c0.5-0.2,0.9-0.4,1-1.1c0-0.9-0.3-1.5-0.9-1.7c-0.5-0.2-1.1-0.2-1.6-0.2c-0.2,0-0.4,0-0.5,0.1
		c-1,0.2-1.5,0.7-1.7,1.8C111.6,25.1,111.6,25.2,111.6,25.2z M116.5,28c-0.6,0.4-1.2,0.5-1.8,0.6c-0.4,0.1-0.8,0.1-1.2,0.2
		c-0.6,0.1-1.2,0.2-1.6,0.6c-0.6,0.5-0.7,1.1-0.6,1.8c0.1,0.6,0.6,1,1.2,1.1c0.5,0.1,1,0.1,1.5,0.1c1.2-0.1,2-0.8,2.3-1.9
		C116.5,29.7,116.4,28.9,116.5,28z"/>
	<path class="st0" d="M142.3,25c-1.2,0-2.4,0-3.5,0c0,0,0,0,0-0.1c-0.1-0.9-0.6-1.4-1.5-1.6c-0.8-0.2-1.5-0.2-2.3,0.1
		c-0.6,0.2-0.9,0.8-0.7,1.4c0.1,0.2,0.2,0.4,0.4,0.5c0.5,0.4,1.1,0.5,1.7,0.7c1.1,0.3,2.2,0.5,3.3,0.8c0.5,0.1,0.9,0.3,1.3,0.5
		c1.1,0.6,1.7,1.5,1.7,2.7c0.1,1.6-0.5,2.9-1.9,3.8c-0.6,0.4-1.2,0.6-1.8,0.8c-1.9,0.4-3.7,0.4-5.6-0.2c-1.4-0.5-2.4-1.3-2.9-2.7
		c-0.2-0.5-0.3-1-0.3-1.5c1.2,0,2.3,0,3.5,0c0,0.2,0,0.3,0.1,0.5c0.1,0.6,0.5,1.1,1.1,1.4c1,0.5,2.1,0.5,3.1,0
		c0.2-0.1,0.4-0.2,0.6-0.4c0.6-0.6,0.5-1.6-0.3-2c-0.6-0.3-1.2-0.5-1.8-0.6c-1.1-0.3-2.1-0.5-3.2-0.8c-0.4-0.1-0.9-0.3-1.3-0.5
		c-1.2-0.7-1.7-1.7-1.6-3c0.1-1.7,1-2.9,2.6-3.5c2.1-0.7,4.2-0.7,6.3,0c1.3,0.4,2.3,1.3,2.7,2.7C142.2,24.3,142.2,24.6,142.3,25z"/>
	<path class="st0" d="M121.1,21.1c0.7,0,1.5,0,2.2,0c0-1.3,0-2.7,0-4c1.2,0,2.5,0,3.7,0c0,1.3,0,2.7,0,4c0.9,0,1.8,0,2.7,0
		c0,0.8,0,1.6,0,2.5c-0.9,0-1.8,0-2.7,0c0,0.1,0,0.1,0,0.2c0,2.2,0,4.5,0,6.7c0,1,0.4,1.3,1.3,1.3c0.2,0,0.5,0,0.7,0
		c0.2,0,0.4,0,0.7-0.1c0,0.9,0,1.9,0,2.9c-0.5,0-1,0.1-1.5,0.1c-0.9,0-1.7,0-2.6-0.2c-0.7-0.2-1.4-0.5-1.9-1.1
		c-0.4-0.6-0.5-1.2-0.5-1.9c0-2.5,0-5.1,0-7.6c0-0.1,0-0.2,0-0.3c-0.7,0-1.5,0-2.2,0C121.1,22.8,121.1,22,121.1,21.1z"/>
	<path class="st0" d="M36.6,15.9c-0.6-0.1-1.1,0-1.5,0.4c-0.5,0.5-1,1-1.4,1.7c-0.7,1.5-0.7,3-0.3,4.5c0.4,1.1,0.9,2.1,1.6,3.1
		c1.2,1.9,2.6,3.6,4.4,5.1c2,1.7,4.4,2.7,6.9,3.4c1.5,0.4,3,0.2,4.4-0.6c1.2-0.8,1.6-2,1.7-3.3c0-0.3-0.1-0.5-0.3-0.6
		c-0.3-0.2-0.7-0.4-1-0.6c-1-0.5-1.9-1-2.9-1.5c-0.5-0.2-0.7-0.1-1.1,0.3c-0.5,0.6-1,1.1-1.4,1.7c-0.3,0.4-0.6,0.4-1.1,0.2
		c-1.9-0.8-3.5-2-4.8-3.6c-0.6-0.7-1.1-1.6-1.6-2.4c-0.2-0.3-0.2-0.6,0.1-0.9c0.1-0.1,0.2-0.2,0.2-0.2c0.4-0.4,0.8-0.9,1.1-1.4
		c0.1-0.3,0.2-0.5,0.1-0.8c-0.4-1.1-0.8-2.2-1.2-3.2c-0.1-0.3-0.3-0.6-0.4-0.9c-0.1-0.3-0.4-0.4-0.7-0.4
		C37.1,15.9,36.9,15.9,36.6,15.9z"/>
	<path class="st0" d="M36.6,15.9c0.2,0,0.5,0,0.7,0.1c0.3,0,0.6,0.2,0.7,0.4c0.2,0.3,0.3,0.6,0.4,0.9c0.4,1.1,0.8,2.2,1.2,3.2
		c0.1,0.3,0.1,0.5-0.1,0.8c-0.3,0.6-0.7,1-1.1,1.4c-0.1,0.1-0.2,0.2-0.2,0.2c-0.3,0.3-0.3,0.5-0.1,0.9c0.5,0.8,1,1.6,1.6,2.4
		c1.3,1.6,2.9,2.8,4.8,3.6c0.5,0.2,0.7,0.1,1.1-0.2c0.5-0.6,1-1.1,1.4-1.7c0.3-0.4,0.6-0.5,1.1-0.3c1,0.5,1.9,1,2.9,1.5
		c0.4,0.2,0.7,0.4,1,0.6c0.2,0.1,0.4,0.3,0.3,0.6c0,1.4-0.4,2.5-1.7,3.3c-1.4,0.9-2.8,1.1-4.4,0.6c-2.5-0.7-4.9-1.7-6.9-3.4
		c-1.7-1.5-3.1-3.2-4.4-5.1c-0.6-1-1.2-2-1.6-3.1c-0.5-1.5-0.5-3,0.3-4.5c0.3-0.7,0.8-1.2,1.4-1.7C35.6,15.9,36.1,15.8,36.6,15.9z"
		/>
</g>
</svg>
